<svg width="596" height="400" viewBox="0 0 596 400" fill="none" xmlns="http://www.w3.org/2000/svg">
<path d="M186.272 1.53768L1.33008 33.3982L22.3866 155.233L207.329 123.372L186.272 1.53768Z" fill="white"/>
<path d="M22.4263 155.827C22.1393 155.827 21.8852 155.62 21.8333 155.328L0.729671 33.5014C0.702345 33.3431 0.737868 33.1822 0.830776 33.0512C0.923683 32.9203 1.06304 32.833 1.22153 32.8057L186.162 0.929743C186.49 0.875179 186.801 1.09344 186.858 1.42082L207.962 123.247C207.989 123.406 207.954 123.566 207.861 123.697C207.768 123.828 207.629 123.916 207.47 123.943L22.5301 155.819C22.4946 155.824 22.4618 155.827 22.4263 155.827ZM2.01944 33.8888L22.9181 154.531L206.672 122.86L185.774 2.21744L2.01944 33.8888Z" fill="black"/>
<path d="M186.28 1.50325L1.34277 33.396L12.6542 98.777L197.591 66.8842L186.28 1.50325Z" fill="white"/>
<path d="M12.6491 99.3785C12.3622 99.3785 12.1081 99.1712 12.0562 98.8793L0.729671 33.5014C0.702345 33.3431 0.737868 33.1822 0.830776 33.0512C0.923683 32.9203 1.06304 32.833 1.22153 32.8057L186.162 0.929743C186.49 0.875179 186.801 1.09344 186.858 1.42082L198.182 66.7987C198.21 66.9569 198.174 67.1179 198.081 67.2488C197.988 67.3798 197.849 67.4671 197.69 67.4944L12.7502 99.3676C12.7147 99.3731 12.6819 99.3758 12.6464 99.3758L12.6491 99.3785ZM2.01944 33.8888L13.1383 98.0826L196.89 66.4113L185.771 2.21744L2.01944 33.8888Z" fill="black"/>
<path d="M22.4263 155.828C22.1393 155.828 21.8852 155.621 21.8333 155.329L0.729671 33.5021C0.702345 33.3466 0.737868 33.1829 0.830776 33.0547C0.923683 32.9238 1.06304 32.8365 1.22153 32.8092L94.5305 16.7266C94.8584 16.6721 95.1699 16.8903 95.2273 17.215L116.331 139.041C116.358 139.197 116.323 139.361 116.23 139.489C116.137 139.62 115.998 139.707 115.839 139.734L22.5301 155.817C22.4946 155.822 22.4618 155.825 22.4263 155.825V155.828ZM2.01944 33.8895L22.9181 154.532L115.038 138.654L94.1397 18.0116L2.01944 33.8895Z" fill="black"/>
<path d="M186.257 1.54255L1.31445 33.4031L3.23666 44.5252L188.179 12.6646L186.257 1.54255Z" fill="white"/>
<path d="M3.2491 45.1207C2.96218 45.1207 2.70805 44.9133 2.65613 44.6214L0.729671 33.5014C0.702345 33.3432 0.737868 33.1822 0.830776 33.0512C0.923683 32.9203 1.06304 32.833 1.22153 32.8057L186.162 0.929746C186.49 0.875182 186.801 1.09344 186.858 1.41809L188.785 12.5408C188.812 12.6991 188.777 12.86 188.684 12.991C188.591 13.1219 188.452 13.2092 188.293 13.2365L3.35294 45.1125C3.31741 45.1179 3.28462 45.1207 3.2491 45.1207ZM2.01944 33.8888L3.74096 43.8248L187.495 12.1534L185.774 2.21744L2.01944 33.8888Z" fill="black"/>
<path d="M441.217 112.167L285.978 6.95459L216.409 109.272L371.649 214.484L441.217 112.167Z" fill="white"/>
<path d="M371.623 215.051C371.505 215.051 371.388 215.018 371.287 214.947L216.044 109.741C215.913 109.651 215.82 109.514 215.79 109.356C215.76 109.2 215.793 109.037 215.883 108.906L285.533 6.64027C285.719 6.36746 286.096 6.29379 286.37 6.48203L441.612 111.688C441.743 111.779 441.836 111.915 441.866 112.073C441.896 112.229 441.864 112.392 441.773 112.523L372.123 214.789C372.006 214.961 371.817 215.051 371.626 215.051H371.623ZM217.217 109.083L371.464 213.616L440.437 112.346L286.189 7.81338L217.217 109.083Z" fill="black"/>
<path d="M363.431 59.4483L285.979 6.95557L216.41 109.273L293.862 161.766L363.431 59.4483Z" fill="white"/>
<path d="M293.835 162.334C293.717 162.334 293.6 162.301 293.496 162.231L216.041 109.741C215.91 109.651 215.817 109.514 215.787 109.356C215.757 109.2 215.79 109.037 215.88 108.906L285.531 6.64027C285.716 6.36746 286.093 6.29379 286.367 6.48203L363.821 58.972C363.952 59.0621 364.045 59.1985 364.075 59.3567C364.105 59.5122 364.073 59.6759 363.983 59.8069L294.332 162.07C294.215 162.241 294.026 162.332 293.835 162.332V162.334ZM217.216 109.083L293.676 160.896L362.649 59.6268L286.189 7.81065L217.216 109.08V109.083Z" fill="black"/>
<path d="M292.285 108.685L240.593 73.6509L216.385 109.254L268.077 144.288L292.285 108.685Z" fill="white"/>
<path d="M268.072 144.876C267.955 144.876 267.837 144.843 267.736 144.772L216.041 109.74C215.91 109.65 215.817 109.514 215.787 109.355C215.757 109.2 215.79 109.036 215.88 108.905L240.115 73.319C240.301 73.0462 240.678 72.9725 240.951 73.1607L292.646 108.193C292.777 108.283 292.87 108.42 292.9 108.578C292.93 108.733 292.898 108.897 292.807 109.028L268.572 144.612C268.455 144.783 268.266 144.873 268.075 144.873L268.072 144.876ZM217.216 109.083L267.914 143.438L291.471 108.848L240.774 74.4894L217.216 109.08V109.083Z" fill="black"/>
<path d="M344.035 143.759L292.343 108.725L268.135 144.328L319.827 179.362L344.035 143.759Z" fill="white"/>
<path d="M319.826 179.95C319.708 179.95 319.591 179.917 319.487 179.846L267.792 144.814C267.661 144.723 267.568 144.587 267.538 144.429C267.508 144.273 267.541 144.11 267.631 143.979L291.866 108.395C292.052 108.122 292.426 108.049 292.702 108.237L344.397 143.269C344.528 143.359 344.621 143.496 344.651 143.654C344.681 143.81 344.649 143.973 344.558 144.104L320.323 179.69C320.206 179.862 320.017 179.952 319.826 179.952V179.95ZM268.97 144.156L319.667 178.515L343.225 143.924L292.528 109.568L268.97 144.159V144.156Z" fill="black"/>
<path d="M395.787 178.833L344.095 143.799L319.887 179.402L371.579 214.436L395.787 178.833Z" fill="white"/>
<path d="M371.582 215.025C371.465 215.025 371.347 214.992 371.246 214.921L319.554 179.888C319.423 179.798 319.33 179.662 319.3 179.504C319.27 179.348 319.303 179.185 319.393 179.054L343.628 143.467C343.814 143.195 344.191 143.121 344.464 143.309L396.159 178.342C396.29 178.432 396.383 178.568 396.413 178.726C396.443 178.885 396.41 179.045 396.32 179.176L372.085 214.76C371.967 214.932 371.779 215.022 371.588 215.022L371.582 215.025ZM320.726 179.231L371.424 213.587L394.981 178.996L344.284 144.638L320.726 179.228V179.231Z" fill="black"/>
<path d="M441.253 112.192L286.014 6.97998L279.663 16.3204L434.902 121.533L441.253 112.192Z" fill="white"/>
<path d="M434.914 122.124C434.796 122.124 434.679 122.091 434.575 122.02L279.332 16.8109C279.201 16.7209 279.108 16.5845 279.078 16.4262C279.048 16.2707 279.081 16.107 279.171 15.9761L285.53 6.64027C285.716 6.36746 286.093 6.29379 286.366 6.48203L441.609 111.688C441.74 111.779 441.833 111.915 441.863 112.073C441.893 112.229 441.86 112.392 441.77 112.523L435.411 121.859C435.294 122.031 435.105 122.121 434.914 122.121V122.124ZM280.507 16.1561L434.755 120.689L440.436 112.346L286.188 7.81338L280.507 16.1561Z" fill="black"/>
<path d="M407.168 162.237L251.929 57.0247L240.728 73.4978L395.968 178.71L407.168 162.237Z" fill="white"/>
<path d="M395.972 179.297C395.855 179.297 395.737 179.265 395.634 179.194L240.391 73.9872C240.26 73.8972 240.167 73.7608 240.137 73.6025C240.107 73.4443 240.14 73.2833 240.23 73.1524L251.444 56.6879C251.63 56.4151 252.004 56.3414 252.28 56.5296L407.523 161.736C407.654 161.826 407.747 161.963 407.777 162.121C407.807 162.276 407.774 162.44 407.684 162.571L396.47 179.035C396.352 179.207 396.164 179.297 395.972 179.297ZM241.566 73.3297L395.814 177.862L406.351 162.391L252.103 57.8583L241.566 73.3297Z" fill="black"/>
<path d="M169.738 234.131L193.112 398.874H114.264L104.85 367.765L96.6114 398.874H15.2109C15.2109 398.874 33.3907 315.526 53.7347 274.437C74.0786 233.348 100.049 220.829 100.049 220.829L169.738 234.134V234.131Z" fill="white"/>
<path d="M15.2109 398.874C15.2109 398.874 33.3907 315.525 53.7347 274.436C74.0786 233.347 100.049 220.828 100.049 220.828L169.738 234.133L193.112 398.876H15.2109V398.874Z" fill="white"/>
<path d="M15.2119 399.472C15.1709 399.472 15.1272 399.467 15.0835 399.459C14.7583 399.388 14.5534 399.069 14.6244 398.744C14.8075 397.909 33.0528 314.85 53.1973 274.167C73.3992 233.368 99.528 220.409 99.7903 220.283C99.9051 220.226 100.039 220.21 100.165 220.234L169.853 233.539C170.107 233.589 170.301 233.79 170.337 234.044L193.711 398.788C193.758 399.115 193.528 399.42 193.2 399.467C192.867 399.51 192.566 399.284 192.52 398.957L169.206 234.639L100.143 221.454C97.8502 222.643 73.4211 236.038 54.2794 274.699C34.2005 315.251 15.9852 398.165 15.8049 398.998C15.742 399.279 15.4934 399.47 15.2174 399.47L15.2119 399.472Z" fill="black"/>
<path d="M114.267 398.874L104.85 367.764L96.6143 398.874H114.267Z" fill="white"/>
<path d="M114.266 399.474C114.006 399.474 113.769 399.308 113.689 399.046L104.891 369.969L97.1957 399.027C97.111 399.349 96.7803 399.54 96.4606 399.455C96.1409 399.371 95.9469 399.041 96.0316 398.721L104.27 367.612C104.339 367.353 104.574 367.17 104.841 367.165C105.126 367.178 105.35 367.334 105.429 367.593L114.843 398.702C114.938 399.019 114.758 399.354 114.441 399.452C114.384 399.469 114.323 399.477 114.266 399.477V399.474Z" fill="black"/>
<path d="M104.847 367.763L93.668 320.806C93.668 320.806 85.4293 304.958 84.8418 301.436L104.85 367.763H104.847Z" fill="white"/>
<path d="M104.848 368.363C104.574 368.363 104.328 368.177 104.263 367.902L93.1003 321.015C92.4417 319.747 84.8315 305.028 84.2495 301.533C84.1948 301.206 84.4162 300.895 84.7441 300.841C85.0775 300.783 85.3835 301.007 85.4382 301.334C86.0038 304.723 94.125 320.369 94.2042 320.527C94.2261 320.571 94.2452 320.617 94.2562 320.666L105.435 367.623C105.512 367.945 105.312 368.27 104.99 368.346C104.943 368.357 104.897 368.363 104.85 368.363H104.848Z" fill="black"/>
<path d="M84.2549 159.977C85.4927 155.978 95.4857 143.385 97.986 140.021C103.738 132.275 126.662 135.492 136.267 134.425C148.331 133.086 172.913 128.868 188.8 138.455C204.348 147.837 210.139 167.073 217.574 177.301C224.892 172.205 230.775 167.706 238.424 162.032L264.02 190.107C262.648 191.771 236.068 230.803 211.942 228.064C197.9 226.471 193.7 218.674 184.679 209.281C184.679 209.281 184.483 248.411 171.929 244.499C120.161 228.362 91.9142 255.125 69.1602 247.298C63.6458 245.402 80.7299 171.348 84.2521 159.975L84.2549 159.977Z" fill="#8C35E3"/>
<path d="M184.483 209.491C184.281 209.491 184.082 209.387 183.967 209.202C180.262 203.104 173.43 190.224 169.79 179.737C169.681 179.424 169.848 179.083 170.162 178.973C170.476 178.864 170.821 179.031 170.927 179.344C174.534 189.742 181.316 202.523 184.994 208.577C185.167 208.861 185.076 209.229 184.792 209.403C184.694 209.463 184.587 209.491 184.481 209.491H184.483Z" fill="black"/>
<path d="M263.562 190.345C267.844 181.262 284.721 161.914 292.724 158.452C306.182 152.636 296.99 150.292 296.99 150.292C296.99 150.292 303.021 148.516 302.305 145.204C301.463 141.306 289.962 145.944 286.226 147.084C285.218 147.419 284.587 147.613 284.587 147.613C284.587 147.613 285.221 147.392 286.226 147.084C290.339 145.717 301.086 141.693 301.343 138.869C301.663 135.356 296.815 135.787 296.815 135.787C296.815 135.787 299.701 134.218 297.586 131.585C295.681 129.217 271.006 131.424 253.84 146.721C251.403 148.893 239.385 161.36 237.475 163.232L263.562 190.342V190.345Z" fill="white"/>
<path d="M263.559 190.946C263.474 190.946 263.387 190.927 263.302 190.888C263.001 190.747 262.873 190.389 263.015 190.089C267.458 180.666 284.335 161.424 292.483 157.902C298.913 155.122 299.495 153.395 299.448 152.781C299.369 151.753 297.492 151.044 296.842 150.877C296.579 150.809 296.393 150.577 296.391 150.304C296.385 150.034 296.563 149.794 296.82 149.718C296.874 149.701 302.296 148.015 301.716 145.333C301.648 145.012 301.473 144.782 301.173 144.61C299.019 143.394 292.202 145.71 288.537 146.954C287.693 147.24 286.961 147.489 286.4 147.661C285.398 147.993 284.761 148.19 284.761 148.19C284.449 148.285 284.116 148.113 284.012 147.802C283.911 147.491 284.075 147.156 284.387 147.047C284.387 147.047 285.031 146.823 286.051 146.512C293.038 144.19 300.572 140.701 300.744 138.819C300.804 138.145 300.648 137.632 300.263 137.247C299.397 136.377 297.519 136.333 296.869 136.388C296.574 136.415 296.322 136.235 296.24 135.962C296.158 135.689 296.279 135.397 296.527 135.261C296.536 135.256 297.549 134.685 297.73 133.758C297.836 133.209 297.631 132.607 297.115 131.965C297.101 131.949 296.79 131.586 295.013 131.439C287.627 130.831 268.103 134.816 254.238 147.175C252.645 148.594 246.836 154.541 242.592 158.884C240.332 161.198 238.548 163.026 237.892 163.667C237.654 163.899 237.272 163.896 237.039 163.659C236.807 163.421 236.81 163.042 237.048 162.807C237.692 162.174 239.564 160.259 241.728 158.044C245.983 153.69 251.812 147.723 253.435 146.275C268.404 132.931 288.319 129.668 295.109 130.238C296.667 130.367 297.626 130.686 298.049 131.21C298.801 132.143 299.088 133.081 298.905 133.998C298.806 134.484 298.588 134.895 298.331 135.231C299.244 135.343 300.356 135.643 301.107 136.393C301.752 137.037 302.031 137.888 301.938 138.925C301.809 140.344 299.722 141.888 297.074 143.29C299.063 142.96 300.714 142.971 301.763 143.563C302.359 143.898 302.749 144.422 302.891 145.077C303.468 147.742 300.566 149.475 298.678 150.301C299.582 150.768 300.558 151.532 300.648 152.683C300.804 154.634 298.29 156.702 292.961 159.004C285.223 162.349 268.406 181.476 264.103 190.599C264.002 190.818 263.783 190.946 263.559 190.946Z" fill="black"/>
<path d="M286.579 154.624C286.366 154.624 286.161 154.512 286.052 154.313C285.891 154.021 285.997 153.655 286.29 153.497C286.56 153.347 292.878 149.893 296.198 149.893C296.244 149.893 296.288 149.893 296.334 149.893C296.668 149.904 296.927 150.18 296.919 150.512C296.908 150.845 296.635 151.099 296.299 151.096C293.337 151.028 286.934 154.515 286.872 154.55C286.779 154.599 286.68 154.624 286.582 154.624H286.579Z" fill="black"/>
<path d="M280.367 141.772C280.149 141.772 279.936 141.652 279.829 141.445C279.679 141.15 279.796 140.787 280.094 140.637C284.029 138.64 289.702 136.796 295.659 135.582C295.984 135.516 296.304 135.724 296.369 136.051C296.438 136.376 296.227 136.695 295.899 136.76C290.043 137.955 284.483 139.759 280.638 141.712C280.55 141.756 280.458 141.778 280.365 141.778L280.367 141.772Z" fill="black"/>
<path d="M173.351 72.9296C173.351 72.9296 190.074 97.8869 180.109 109.874C170.143 121.865 146.998 109.583 146.998 109.583C146.998 109.583 158.882 67.1813 173.351 72.9296Z" fill="white"/>
<path d="M167.302 115.771C157.541 115.771 147.354 110.454 146.718 110.116C146.469 109.982 146.343 109.696 146.42 109.423C146.772 108.162 155.21 78.4663 166.777 72.7508C169.07 71.6186 171.354 71.4904 173.573 72.3716C173.685 72.4152 173.784 72.4944 173.852 72.5953C174.546 73.6293 190.706 98.0655 180.571 110.26C177.142 114.388 172.275 115.771 167.302 115.771ZM147.718 109.273C150.915 110.852 170.846 120.085 179.648 109.494C188.81 98.4665 174.336 75.5499 172.956 73.4219C171.1 72.7372 169.253 72.8708 167.313 73.8284C156.992 78.9274 148.86 105.393 147.718 109.273Z" fill="black"/>
<path d="M94.6618 206.203C100.786 210.255 108.076 212.424 115.394 212.729C123.99 213.089 132.593 210.901 140.244 207.055C146.37 203.972 152.021 199.623 155.866 193.894C157.705 191.152 159.074 188.069 159.719 184.825C160.517 180.807 160.129 176.693 159.232 172.723C158.298 168.585 156.773 164.618 155.666 160.528C154.677 156.878 153.991 152.909 154.953 149.176C156.768 142.146 164.146 138.728 167.31 132.469C170.622 125.924 169.001 118.187 166.602 111.634C165.266 107.984 163.345 104.494 162.476 100.691C161.681 97.2157 162.298 93.8028 164.654 91.0828C166.572 88.8675 169.143 87.3125 171.605 85.7738C174.108 84.2078 176.655 82.6364 178.74 80.522C183.774 75.4204 184.252 67.5196 182.055 61.0074C180.932 57.6845 178.956 54.6426 175.677 53.1367C172.753 51.7944 169.417 51.8571 166.312 52.4355C162.818 53.0875 159.525 54.4107 156.24 55.7284C153.226 56.937 150.226 58.1729 147.225 59.4114C146.488 59.2969 145.747 59.1959 145.004 59.1168C141.025 58.7048 136.967 58.8494 133.117 60.0035C129.365 61.1275 126.043 63.2745 123.285 66.0273C117.859 71.4454 114.14 78.7214 111.672 85.9074C110.407 89.5932 109.489 93.3936 108.918 97.2485C108.352 101.082 108.232 104.947 108.112 108.816C107.991 112.723 107.849 116.665 107.038 120.501C106.251 124.214 104.761 127.629 102.518 130.696C100.285 133.746 97.5283 136.37 94.8476 139.019C92.2025 141.633 89.6503 144.309 87.4506 147.313C83.1113 153.241 80.0317 160.16 78.8048 167.414C76.3236 182.103 82.0128 197.836 94.6673 206.203H94.6618Z" fill="black"/>
<path d="M583.958 149.787C583.594 149.899 583.248 150.035 582.908 150.187C580.942 146.923 578.52 144.022 575.749 141.547C575.961 141.244 576.163 140.929 576.339 140.594C578.729 136.101 577.013 130.526 572.507 128.145C568.001 125.763 562.411 127.476 560.021 131.97C559.843 132.305 559.695 132.646 559.562 132.991C555.954 132.093 552.186 131.723 548.373 131.932C548.308 131.568 548.226 131.204 548.115 130.842C546.617 125.981 541.452 123.25 536.576 124.744C531.7 126.237 528.961 131.39 530.458 136.25C530.57 136.612 530.707 136.959 530.859 137.297C527.585 139.258 524.675 141.674 522.194 144.437C521.89 144.227 521.575 144.026 521.239 143.848C516.733 141.466 511.143 143.179 508.754 147.672C506.364 152.165 508.08 157.74 512.586 160.12C512.922 160.299 513.266 160.444 513.611 160.577C512.709 164.176 512.337 167.934 512.546 171.737C512.182 171.801 511.817 171.883 511.453 171.995C506.577 173.488 503.838 178.641 505.335 183.501C506.833 188.362 511.998 191.093 516.874 189.6C517.238 189.488 517.584 189.351 517.923 189.2C519.89 192.463 522.312 195.364 525.083 197.839C524.87 198.142 524.669 198.457 524.493 198.792C522.103 203.286 523.819 208.861 528.325 211.241C532.831 213.623 538.421 211.91 540.811 207.417C540.989 207.081 541.137 206.74 541.27 206.395C544.878 207.294 548.646 207.663 552.459 207.455C552.524 207.819 552.605 208.182 552.717 208.544C554.215 213.405 559.38 216.136 564.256 214.643C569.132 213.149 571.871 207.997 570.373 203.136C570.261 202.774 570.125 202.427 569.973 202.09C573.247 200.128 576.157 197.712 578.638 194.949C578.941 195.16 579.256 195.361 579.592 195.539C584.099 197.921 589.688 196.208 592.078 191.714C594.468 187.221 592.752 181.646 588.246 179.266C587.91 179.088 587.566 178.942 587.221 178.809C588.123 175.211 588.495 171.453 588.286 167.651C588.65 167.587 589.015 167.505 589.379 167.394C594.255 165.9 596.994 160.748 595.497 155.887C593.999 151.026 588.834 148.295 583.958 149.789V149.787ZM555.449 186.043C546.395 188.817 536.8 183.746 534.021 174.718C531.242 165.69 536.329 156.122 545.383 153.348C554.437 150.573 564.032 155.644 566.811 164.672C569.59 173.7 564.503 183.268 555.449 186.043Z" fill="#8C35E3"/>
<path d="M386.781 288.179C386.385 288.299 386.008 288.449 385.639 288.613C383.497 285.061 380.863 281.902 377.846 279.209C378.075 278.879 378.294 278.538 378.488 278.172C381.089 273.28 379.22 267.213 374.315 264.621C369.41 262.03 363.328 263.893 360.726 268.784C360.532 269.15 360.371 269.521 360.226 269.898C356.297 268.921 352.198 268.517 348.047 268.746C347.976 268.351 347.889 267.955 347.766 267.56C346.137 262.267 340.514 259.296 335.207 260.922C329.9 262.548 326.919 268.154 328.548 273.447C328.668 273.843 328.818 274.219 328.982 274.585C325.419 276.721 322.252 279.351 319.549 282.357C319.219 282.128 318.874 281.91 318.511 281.716C313.606 279.124 307.523 280.988 304.922 285.879C302.32 290.771 304.19 296.838 309.094 299.43C309.461 299.624 309.832 299.785 310.209 299.927C309.228 303.844 308.824 307.934 309.051 312.072C308.655 312.143 308.256 312.231 307.862 312.353C302.555 313.979 299.574 319.586 301.203 324.878C302.831 330.171 308.455 333.142 313.762 331.516C314.158 331.396 314.535 331.246 314.904 331.082C317.046 334.634 319.68 337.794 322.697 340.486C322.468 340.816 322.249 341.157 322.055 341.523C319.454 346.415 321.323 352.482 326.228 355.074C331.133 357.666 337.215 355.802 339.817 350.911C340.011 350.545 340.172 350.174 340.317 349.798C344.246 350.774 348.345 351.178 352.496 350.949C352.567 351.344 352.654 351.74 352.777 352.136C354.406 357.428 360.03 360.399 365.336 358.773C370.643 357.147 373.624 351.541 371.995 346.248C371.875 345.853 371.725 345.476 371.561 345.111C375.124 342.974 378.291 340.344 380.994 337.338C381.324 337.567 381.669 337.785 382.032 337.979C386.937 340.571 393.02 338.707 395.621 333.816C398.223 328.924 396.354 322.857 391.449 320.265C391.082 320.071 390.711 319.91 390.334 319.769C391.315 315.851 391.719 311.761 391.492 307.623C391.889 307.552 392.287 307.464 392.681 307.342C397.988 305.716 400.969 300.109 399.34 294.817C397.712 289.524 392.088 286.553 386.781 288.179ZM355.75 327.642C345.894 330.662 335.453 325.143 332.428 315.316C329.403 305.489 334.939 295.076 344.795 292.056C354.652 289.036 365.093 294.555 368.118 304.382C371.143 314.209 365.607 324.622 355.75 327.642Z" fill="white"/>
<path d="M362.388 359.818C357.83 359.818 353.606 356.877 352.199 352.313C352.127 352.078 352.062 351.838 352.005 351.576C348.195 351.735 344.386 351.377 340.675 350.504C340.569 350.753 340.459 350.979 340.345 351.192C337.593 356.367 331.13 358.348 325.941 355.603C323.427 354.275 321.58 352.048 320.747 349.334C319.913 346.622 320.186 343.747 321.52 341.239C321.635 341.024 321.76 340.808 321.905 340.582C319.099 338.012 316.664 335.074 314.659 331.835C314.407 331.934 314.169 332.018 313.937 332.089C308.319 333.811 302.348 330.654 300.627 325.053C299.791 322.341 300.067 319.466 301.4 316.959C302.734 314.451 304.966 312.613 307.685 311.778C307.917 311.707 308.16 311.644 308.426 311.584C308.264 307.781 308.628 303.986 309.502 300.29C309.256 300.183 309.027 300.074 308.814 299.962C306.3 298.634 304.455 296.407 303.619 293.693C302.786 290.981 303.059 288.106 304.392 285.598C307.144 280.423 313.606 278.442 318.796 281.187C319.011 281.302 319.23 281.427 319.457 281.572C322.034 278.772 324.982 276.344 328.231 274.342C328.13 274.091 328.048 273.856 327.977 273.622C327.141 270.91 327.417 268.034 328.75 265.527C330.084 263.02 332.316 261.181 335.035 260.346C340.648 258.628 346.621 261.781 348.346 267.382C348.417 267.617 348.482 267.857 348.54 268.119C352.354 267.961 356.161 268.318 359.869 269.191C359.975 268.946 360.085 268.719 360.197 268.504C362.948 263.326 369.408 261.348 374.6 264.089C377.114 265.418 378.961 267.644 379.795 270.359C380.628 273.071 380.355 275.946 379.021 278.451C378.909 278.663 378.781 278.882 378.636 279.108C381.442 281.678 383.877 284.616 385.883 287.855C386.134 287.754 386.372 287.672 386.604 287.601C392.22 285.882 398.19 289.036 399.915 294.637C400.751 297.349 400.475 300.224 399.141 302.731C397.808 305.238 395.575 307.077 392.856 307.912C392.621 307.983 392.381 308.048 392.116 308.106C392.277 311.909 391.916 315.704 391.039 319.4C391.285 319.507 391.512 319.613 391.728 319.728C394.242 321.056 396.089 323.283 396.922 325.997C397.756 328.709 397.483 331.584 396.149 334.089C393.397 339.267 386.935 341.245 381.746 338.5C381.53 338.386 381.311 338.26 381.084 338.116C378.505 340.915 375.559 343.343 372.313 345.345C372.411 345.594 372.496 345.831 372.567 346.063C373.403 348.775 373.127 351.65 371.794 354.157C370.46 356.664 368.228 358.503 365.509 359.338C364.47 359.657 363.418 359.807 362.386 359.807L362.388 359.818ZM352.496 350.349C352.786 350.349 353.037 350.556 353.089 350.843C353.166 351.271 353.251 351.626 353.352 351.958C354.879 356.926 360.178 359.726 365.159 358.198C367.572 357.458 369.55 355.827 370.733 353.603C371.914 351.38 372.16 348.829 371.419 346.426C371.318 346.096 371.184 345.744 371.009 345.356C370.887 345.078 370.988 344.753 371.25 344.595C374.72 342.513 377.846 339.938 380.543 336.937C380.746 336.711 381.087 336.672 381.336 336.844C381.686 337.087 382.005 337.284 382.314 337.447C386.918 339.881 392.649 338.124 395.089 333.535C396.269 331.312 396.515 328.763 395.775 326.357C395.034 323.951 393.397 321.976 391.168 320.797C390.859 320.634 390.525 320.486 390.118 320.331C389.834 320.222 389.676 319.919 389.749 319.624C390.728 315.715 391.113 311.688 390.892 307.658C390.875 307.356 391.086 307.088 391.386 307.034C391.815 306.957 392.17 306.873 392.504 306.772C394.917 306.032 396.898 304.401 398.081 302.177C399.264 299.954 399.507 297.406 398.767 295C397.237 290.034 391.944 287.233 386.959 288.76C386.629 288.861 386.287 288.992 385.886 289.17C385.61 289.292 385.282 289.191 385.126 288.929C383.041 285.47 380.459 282.352 377.447 279.665C377.221 279.463 377.182 279.122 377.354 278.873C377.6 278.524 377.797 278.205 377.958 277.899C379.142 275.676 379.385 273.128 378.644 270.722C377.904 268.315 376.267 266.34 374.037 265.162C369.433 262.731 363.703 264.485 361.26 269.074C361.096 269.382 360.943 269.726 360.79 270.119C360.68 270.402 360.374 270.558 360.082 270.487C356.163 269.513 352.125 269.134 348.081 269.352C347.78 269.379 347.509 269.158 347.455 268.858C347.378 268.43 347.294 268.075 347.192 267.742C345.665 262.777 340.369 259.975 335.385 261.503C332.972 262.242 330.994 263.874 329.811 266.097C328.627 268.321 328.384 270.869 329.125 273.275C329.226 273.608 329.357 273.946 329.535 274.347C329.658 274.626 329.556 274.95 329.294 275.106C325.824 277.185 322.695 279.763 320.001 282.764C319.798 282.99 319.457 283.028 319.208 282.857C318.858 282.614 318.539 282.417 318.23 282.254C313.626 279.823 307.895 281.577 305.452 286.166C304.272 288.389 304.026 290.937 304.767 293.344C305.507 295.75 307.144 297.725 309.374 298.904C309.683 299.067 310.027 299.22 310.423 299.37C310.707 299.479 310.866 299.782 310.792 300.077C309.814 303.986 309.428 308.013 309.65 312.045C309.666 312.348 309.456 312.615 309.155 312.67C308.726 312.746 308.368 312.831 308.035 312.932C305.622 313.671 303.644 315.303 302.46 317.526C301.28 319.75 301.034 322.3 301.774 324.704C303.302 329.672 308.6 332.471 313.582 330.943C313.918 330.84 314.26 330.711 314.656 330.534C314.934 330.411 315.26 330.515 315.415 330.774C317.5 334.236 320.085 337.352 323.094 340.039C323.321 340.241 323.359 340.582 323.187 340.83C322.944 341.179 322.744 341.499 322.58 341.804C321.4 344.028 321.154 346.576 321.894 348.979C322.635 351.385 324.272 353.361 326.501 354.539C331.106 356.973 336.836 355.216 339.279 350.627C339.443 350.319 339.59 349.986 339.749 349.582C339.858 349.298 340.164 349.14 340.457 349.214C344.381 350.188 348.417 350.572 352.458 350.349C352.469 350.349 352.48 350.349 352.491 350.349H352.496ZM350.28 329.066C342.039 329.066 334.393 323.749 331.852 315.494C330.341 310.586 330.838 305.389 333.248 300.852C335.658 296.317 339.697 292.989 344.618 291.483C354.778 288.373 365.577 294.08 368.695 304.207C370.206 309.115 369.709 314.312 367.299 318.849C364.889 323.384 360.85 326.712 355.928 328.221C354.051 328.796 352.149 329.069 350.28 329.069V329.066ZM350.267 291.835C348.512 291.835 346.731 292.091 344.971 292.632C340.358 294.045 336.574 297.163 334.314 301.416C332.054 305.667 331.589 310.542 333.005 315.142C335.929 324.636 346.05 329.988 355.576 327.069C360.189 325.656 363.973 322.538 366.233 318.285C368.493 314.034 368.957 309.159 367.542 304.559C365.159 296.822 357.992 291.835 350.267 291.835Z" fill="black"/>
</svg>
