<svg width="10" height="10" viewBox="0 0 10 10" fill="none" xmlns="http://www.w3.org/2000/svg">
<g clip-path="url(#clip0_33_298)">
<path d="M7.77494 2.06522C7.91358 1.92879 8.10204 1.85141 8.29901 1.85C8.49606 1.84858 8.6856 1.92325 8.82632 2.05767C8.96703 2.19209 9.04745 2.37535 9.04997 2.56738C9.05249 2.75941 8.97693 2.94462 8.83977 3.08251L4.87194 7.91782C4.80377 7.98937 4.72152 8.04679 4.63008 8.08666C4.53865 8.12653 4.43991 8.148 4.33977 8.14984C4.23962 8.15169 4.14013 8.13382 4.04721 8.09737C3.9543 8.06088 3.86988 8.00652 3.799 7.93753L1.16827 5.37411C1.02847 5.23776 0.949965 5.0529 0.950012 4.86012C0.950062 4.66735 1.02866 4.4825 1.16852 4.34622C1.30839 4.20994 1.49806 4.13342 1.69581 4.13346C1.89356 4.1335 2.0832 4.21012 2.22299 4.34646L4.33977 6.32383L7.75518 2.08791C7.76148 2.08011 7.76823 2.0727 7.77543 2.06571L7.77494 2.06522Z" fill="#38AB96"/>
<path fill-rule="evenodd" clip-rule="evenodd" d="M8.82632 2.05767C8.6856 1.92325 8.49606 1.84858 8.29901 1.85C8.25567 1.85031 8.2127 1.8543 8.17062 1.86179C8.07927 1.87805 7.99197 1.91079 7.91318 1.95817C7.91147 1.95919 7.90976 1.96022 7.90805 1.96126C7.86012 1.9906 7.81544 2.02539 7.77494 2.06522L7.77543 2.06571C7.76823 2.0727 7.76148 2.08011 7.75518 2.08791L4.33977 6.32383L2.22299 4.34646C2.0832 4.21012 1.89356 4.1335 1.69581 4.13346C1.49806 4.13342 1.30839 4.20994 1.16852 4.34622C1.02866 4.4825 0.950062 4.66735 0.950012 4.86012C0.949965 5.0529 1.02847 5.23776 1.16827 5.37411L3.799 7.93753C3.86988 8.00652 3.9543 8.06088 4.04721 8.09737C4.14013 8.13382 4.23962 8.15169 4.33977 8.14984C4.43991 8.148 4.53865 8.12653 4.63008 8.08666C4.72152 8.04679 4.80377 7.98937 4.87194 7.91782L8.83977 3.08251C8.97693 2.94462 9.05249 2.75941 9.04997 2.56738C9.04745 2.37535 8.96703 2.19209 8.82632 2.05767ZM4.51782 7.67424L8.48652 2.83791L8.50029 2.82404C8.56109 2.76292 8.60132 2.67273 8.59997 2.5719C8.59866 2.47109 8.55614 2.38251 8.49449 2.32362C8.43432 2.26613 8.36421 2.24329 8.30274 2.24373C8.24721 2.24413 8.18471 2.2636 8.12918 2.3105L8.1168 2.32246L4.389 6.94582L1.89126 4.61255L1.88803 4.60941C1.82792 4.55078 1.75745 4.52723 1.6957 4.52721C1.63393 4.5272 1.56346 4.55072 1.50334 4.6093C1.44176 4.6693 1.40004 4.75896 1.40001 4.8602C1.39999 4.96137 1.44161 5.05101 1.50309 5.11104L4.13363 7.67428C4.13362 7.67428 4.13364 7.67428 4.13363 7.67428C4.16431 7.70416 4.19811 7.72504 4.23143 7.73814C4.26455 7.7511 4.29797 7.75677 4.33031 7.75618C4.36265 7.7556 4.3962 7.74867 4.42937 7.73422C4.45965 7.72104 4.49005 7.70128 4.51782 7.67424Z" fill="#38AB96"/>
</g>
<defs>
<clipPath id="clip0_33_298">
<rect width="9" height="9" fill="white" transform="translate(0.5 0.5)"/>
</clipPath>
</defs>
</svg>
