<svg width="41" height="28" viewBox="0 0 41 28" fill="none" xmlns="http://www.w3.org/2000/svg">
<path d="M40.2979 0.1875H0.161133V27.3546H40.2979V0.1875Z" fill="white"/>
<path d="M38.9567 26.6801C38.8335 26.6801 38.7045 26.6449 38.596 26.5686L22.8651 15.9077C22.5689 15.7082 22.4926 15.3061 22.692 15.0098C22.8915 14.7134 23.2933 14.6371 23.5895 14.8366L39.3204 25.4975C39.6166 25.697 39.6928 26.099 39.4934 26.3954C39.3673 26.5803 39.1649 26.6801 38.9567 26.6801Z" fill="#8C35E3"/>
<path d="M1.27919 26.7466C1.06804 26.7466 0.859823 26.6409 0.73665 26.4502C0.543093 26.1509 0.631083 25.7489 0.930217 25.5552L17.2213 15.0528C17.5233 14.8621 17.9222 14.9472 18.1157 15.2465C18.3093 15.5458 18.2213 15.9478 17.9222 16.1415L1.63113 26.6439C1.52262 26.7143 1.40236 26.7466 1.28212 26.7466H1.27919Z" fill="#8C35E3"/>
<path d="M20.212 18.3955C20.0653 18.3955 19.9216 18.3456 19.8014 18.2487L0.530717 2.42913C0.255045 2.20317 0.21397 1.79529 0.439787 1.51946C0.665604 1.24362 1.07324 1.20254 1.34891 1.42849L20.209 16.9106L39.0838 1.36392C39.3595 1.13797 39.7671 1.17611 39.9929 1.45195C40.2187 1.72779 40.1806 2.13569 39.9049 2.36164L20.6225 18.2458C20.5023 18.3426 20.3586 18.3925 20.212 18.3925V18.3955Z" fill="#8C35E3"/>
</svg>
