<svg width="30" height="30" viewBox="0 0 30 30" fill="none" xmlns="http://www.w3.org/2000/svg">
<rect x="0.5" y="0.5" width="29" height="29" rx="3.5" fill="white"/>
<rect x="0.5" y="0.5" width="29" height="29" rx="3.5" stroke="white"/>
<path d="M17.2749 11.5652C17.4136 11.4288 17.602 11.3514 17.799 11.35C17.9961 11.3486 18.1856 11.4233 18.3263 11.5577C18.467 11.6921 18.5474 11.8754 18.55 12.0674C18.5525 12.2594 18.4769 12.4446 18.3398 12.5825L14.3719 17.4178C14.3038 17.4894 14.2215 17.5468 14.1301 17.5867C14.0386 17.6265 13.9399 17.648 13.8398 17.6499C13.7396 17.6517 13.6401 17.6338 13.5472 17.5974C13.4543 17.5609 13.3699 17.5065 13.299 17.4375L10.6683 14.8741C10.5285 14.7378 10.45 14.5529 10.45 14.3601C10.4501 14.1674 10.5287 13.9825 10.6685 13.8462C10.8084 13.71 10.9981 13.6334 11.1958 13.6335C11.3936 13.6335 11.5832 13.7101 11.723 13.8465L13.8398 15.8238L17.2552 11.5879C17.2615 11.5801 17.2682 11.5727 17.2754 11.5657L17.2749 11.5652Z" fill="#38AB96"/>
<path fill-rule="evenodd" clip-rule="evenodd" d="M18.3263 11.5577C18.1856 11.4233 17.9961 11.3486 17.799 11.35C17.7557 11.3503 17.7127 11.3543 17.6706 11.3618C17.5793 11.3781 17.492 11.4108 17.4132 11.4582C17.4115 11.4592 17.4098 11.4602 17.408 11.4613C17.3601 11.4906 17.3154 11.5254 17.2749 11.5652L17.2754 11.5657C17.2682 11.5727 17.2615 11.5801 17.2552 11.5879L13.8398 15.8238L11.723 13.8465C11.5832 13.7101 11.3936 13.6335 11.1958 13.6335C10.9981 13.6334 10.8084 13.71 10.6685 13.8462C10.5287 13.9825 10.4501 14.1674 10.45 14.3601C10.45 14.5529 10.5285 14.7378 10.6683 14.8741L13.299 17.4375C13.3699 17.5065 13.4543 17.5609 13.5472 17.5974C13.6401 17.6338 13.7396 17.6517 13.8398 17.6499C13.9399 17.648 14.0386 17.6265 14.1301 17.5867C14.2215 17.5468 14.3038 17.4894 14.3719 17.4178L18.3398 12.5825C18.4769 12.4446 18.5525 12.2594 18.55 12.0674C18.5474 11.8754 18.467 11.6921 18.3263 11.5577ZM14.0178 17.1743L17.9865 12.3379L18.0003 12.3241C18.0611 12.2629 18.1013 12.1727 18.1 12.0719C18.0987 11.9711 18.0561 11.8825 17.9945 11.8236C17.9343 11.7661 17.8642 11.7433 17.8027 11.7437C17.7472 11.7441 17.6847 11.7636 17.6292 11.8105L17.6168 11.8225L13.889 16.4458L11.3913 14.1126L11.388 14.1094C11.3279 14.0508 11.2575 14.0272 11.1957 14.0272C11.1339 14.0272 11.0635 14.0507 11.0033 14.1093C10.9418 14.1693 10.9 14.259 10.9 14.3602C10.9 14.4614 10.9416 14.551 11.0031 14.6111L13.6336 17.1743C13.6336 17.1743 13.6336 17.1743 13.6336 17.1743C13.6643 17.2042 13.6981 17.2251 13.7314 17.2382C13.7645 17.2511 13.798 17.2568 13.8303 17.2562C13.8626 17.2556 13.8962 17.2487 13.9294 17.2342C13.9597 17.2211 13.99 17.2013 14.0178 17.1743Z" fill="#38AB96"/>
</svg>
