<svg width="34" height="33" viewBox="0 0 34 33" fill="none" xmlns="http://www.w3.org/2000/svg">
<path d="M20.5311 2.42474C20.5753 2.25937 20.6517 2.10435 20.7559 1.96852C20.86 1.83268 20.9899 1.7187 21.1382 1.6331C21.2864 1.54749 21.45 1.49192 21.6198 1.46958C21.7895 1.44723 21.9619 1.45855 22.1272 1.50288C24.5428 2.13311 26.7466 3.39586 28.5118 5.16106C30.277 6.92626 31.5397 9.1301 32.17 11.5456C32.2143 11.7109 32.2256 11.8834 32.2033 12.0531C32.1809 12.2228 32.1254 12.3865 32.0398 12.5347C31.9541 12.6829 31.8402 12.8128 31.7043 12.917C31.5685 13.0212 31.4135 13.0975 31.2481 13.1418C31.1381 13.1707 31.0248 13.1854 30.911 13.1857C30.6241 13.1858 30.3451 13.0912 30.1175 12.9166C29.8898 12.7419 29.7262 12.497 29.652 12.2199C29.1382 10.2477 28.1077 8.44828 26.6668 7.00707C25.2259 5.56585 23.4266 4.53503 21.4546 4.02089C21.2891 3.97683 21.1339 3.90058 20.9979 3.79649C20.8618 3.6924 20.7477 3.56252 20.6619 3.41427C20.5761 3.26603 20.5204 3.10232 20.498 2.93253C20.4755 2.76273 20.4868 2.59018 20.5311 2.42474ZM20.1516 9.23281C22.3976 9.83219 23.8407 11.2769 24.44 13.5229C24.5143 13.8 24.6779 14.0449 24.9056 14.2196C25.1332 14.3942 25.4121 14.4888 25.699 14.4887C25.8128 14.4884 25.9261 14.4737 26.0362 14.4447C26.2016 14.4005 26.3566 14.3241 26.4924 14.22C26.6282 14.1158 26.7422 13.9859 26.8278 13.8377C26.9134 13.6894 26.969 13.5258 26.9913 13.3561C27.0137 13.1864 27.0024 13.0139 26.958 12.8486C26.1241 9.72795 23.9449 7.54871 20.8243 6.7148C20.6589 6.67063 20.4865 6.65946 20.3169 6.68193C20.1472 6.70439 19.9836 6.76006 19.8355 6.84573C19.6874 6.93141 19.5575 7.04543 19.4535 7.18128C19.3494 7.31713 19.2731 7.47214 19.2289 7.63748C19.1848 7.80281 19.1736 7.97523 19.1961 8.14488C19.2185 8.31453 19.2742 8.4781 19.3599 8.62624C19.4455 8.77438 19.5596 8.90419 19.6954 9.00827C19.8313 9.11235 19.9863 9.18865 20.1516 9.23281ZM31.9485 22.0558L24.2755 18.6175L24.2544 18.6078C23.856 18.4374 23.4215 18.369 22.9901 18.4088C22.5587 18.4487 22.144 18.5954 21.7836 18.8358C21.7411 18.8638 21.7004 18.8943 21.6614 18.927L17.6971 22.3066C15.1856 21.0867 12.5927 18.5133 11.3728 16.0344L14.7573 12.0098C14.7898 11.9691 14.8208 11.9284 14.8501 11.8844C15.0853 11.5249 15.2281 11.1129 15.2656 10.6849C15.3031 10.257 15.2342 9.82642 15.0651 9.43152V9.41197L11.6171 1.72601C11.3935 1.21014 11.0091 0.780399 10.5212 0.500947C10.0334 0.221496 9.46822 0.107321 8.91013 0.175465C6.70316 0.465878 4.67736 1.54973 3.21111 3.2246C1.74485 4.89946 0.938407 7.05079 0.942398 9.27679C0.942398 22.2089 11.464 32.7305 24.3961 32.7305C26.6221 32.7344 28.7734 31.928 30.4483 30.4617C32.1231 28.9955 33.207 26.9697 33.4974 24.7627C33.5657 24.2048 33.4517 23.6398 33.1726 23.152C32.8934 22.6641 32.464 22.2796 31.9485 22.0558Z" fill="white"/>
<path d="M7.69824 2.2168C8.33077 4.76903 10.0987 10.3129 12.11 12.0705" stroke="#8C35E3" stroke-linecap="round"/>
<path d="M21.0615 21.2227C23.1731 22.7895 28.0638 25.9425 30.7338 26.0192" stroke="#8C35E3" stroke-linecap="round"/>
</svg>
