<svg width="484" height="129" viewBox="0 0 484 129" fill="none" xmlns="http://www.w3.org/2000/svg">
<path d="M472.471 129.186H216.324C220.174 98.5701 241.909 74.5864 269.196 69.3206C290.989 65.1154 309.198 74.2259 315.074 77.4825C318.756 40.9238 344.381 11.0333 377.54 3.37583C424.162 -7.39064 469.173 29.6123 480.236 68.0153C488.253 95.845 477.211 120.142 472.472 129.186H472.471Z" stroke="#1A1A1A" stroke-width="1.40736" stroke-linecap="round" stroke-linejoin="round"/>
<path d="M163.963 129.899H1.25488C3.70025 110.451 17.5065 95.2165 34.8398 91.8716C48.6835 89.2004 60.25 94.9875 63.9825 97.0562C66.3216 73.8335 82.599 54.8465 103.662 49.9824C133.277 43.1433 161.869 66.6482 168.896 91.0425C173.989 108.72 166.975 124.155 163.964 129.899H163.963Z" stroke="#1A1A1A" stroke-width="1.40736" stroke-linecap="round" stroke-linejoin="round"/>
<path d="M82.6129 123.706C81.4219 122.515 11.3802 80.1087 25.674 50.0915C39.9677 20.0743 98.3363 115.607 98.3363 115.607L82.6129 123.707V123.706Z" fill="#1A1A1A" stroke="#1A1A1A" stroke-width="0.937667" stroke-linecap="round" stroke-linejoin="round"/>
<path d="M100.958 119.896C99.0519 118.467 54.9784 42.4689 74.5133 17.9316C94.0483 -6.60703 121.446 117.514 121.446 117.514L100.958 119.896Z" fill="white" stroke="#1A1A1A" stroke-width="0.937667" stroke-linecap="round" stroke-linejoin="round"/>
<path d="M121.446 112.747C121.446 112.747 125.255 15.24 168.616 35.7973C205.304 53.1915 142.648 122.039 142.648 122.039" fill="white"/>
<path d="M121.446 112.747C121.446 112.747 125.255 15.24 168.616 35.7973C205.304 53.1915 142.648 122.039 142.648 122.039" stroke="#1A1A1A" stroke-width="0.937667" stroke-linecap="round" stroke-linejoin="round"/>
<path d="M160.779 48.0674C149.243 68.6788 140.465 90.8331 134.757 113.754L160.779 48.0674Z" fill="white"/>
<path d="M160.779 48.0674C149.243 68.6788 140.465 90.8331 134.757 113.754" stroke="#1A1A1A" stroke-width="0.937667" stroke-linecap="round" stroke-linejoin="round"/>
<path d="M81.8096 31.6592C87.8381 58.9795 93.9909 86.6517 106.808 111.52L81.8096 31.6592Z" fill="white"/>
<path d="M81.8096 31.6592C87.8381 58.9795 93.9909 86.6517 106.808 111.52" stroke="#1A1A1A" stroke-width="0.937667" stroke-linecap="round" stroke-linejoin="round"/>
<path d="M38.0283 63.1553C47.877 71.9126 54.4099 83.7064 62.6124 94.0214C69.3226 102.46 77.2101 109.96 85.9749 116.236" stroke="white" stroke-width="1.40736" stroke-linecap="round" stroke-linejoin="round"/>
<path d="M58.5537 129.899H377.789C377.856 104.523 358.109 83.1979 333.001 81.2995C308.198 79.4245 285.665 97.0746 281.542 121.8C280.585 119.726 270.058 97.8657 246.284 93.6888C226.309 90.1787 205.4 100.629 194.824 119.894C189.848 112.214 181.071 107.823 171.954 108.459C162.918 109.089 154.891 114.564 150.99 122.752C145.875 118.322 133.623 108.996 115.73 107.029C83.4023 103.473 61.1386 127.068 58.5537 129.899Z" fill="white" stroke="#1A1A1A" stroke-width="0.937667" stroke-linecap="round" stroke-linejoin="round"/>
</svg>
