<svg width="284" height="219" viewBox="0 0 284 219" fill="none" xmlns="http://www.w3.org/2000/svg">
<path d="M191.966 84.1849C199.025 84.0018 240.686 85.0637 261.66 103.315C292.353 130.023 289.62 197.766 260.383 213.283C222.664 233.302 205.902 189.308 205.902 189.308L137.801 189.218L130.217 155.111C130.217 155.111 85.2609 168.106 58.1772 152.404C37.576 140.462 29.4683 90.1421 29.4683 90.1421L66.3009 72.8174C66.3009 72.8174 83.2786 106.295 86.8838 107.467C91.6976 109.03 150.077 85.2697 191.966 84.1872V84.1849Z" fill="#FFCA00"/>
<path d="M96.2383 119.509C96.1376 119.509 96.0346 119.479 95.9453 119.415C92.6491 117.06 86.7137 108.123 86.4619 107.743C86.3085 107.512 86.3726 107.199 86.6038 107.045C86.835 106.892 87.1486 106.956 87.3019 107.187C87.3615 107.279 93.3839 116.349 96.529 118.596C96.7556 118.758 96.8083 119.072 96.6458 119.299C96.5473 119.436 96.394 119.509 96.236 119.509H96.2383Z" fill="black"/>
<path d="M205.434 188.416C205.209 188.416 205.003 188.265 204.946 188.036L191.214 133.768C191.146 133.498 191.31 133.224 191.578 133.157C191.846 133.089 192.121 133.253 192.189 133.521L205.921 187.789C205.99 188.059 205.825 188.333 205.557 188.4C205.516 188.411 205.475 188.416 205.434 188.416Z" fill="black"/>
<path d="M251.167 162.931C250.991 162.931 250.82 162.837 250.728 162.672C250.513 162.288 229.124 124.137 219.421 111.723C219.249 111.504 219.288 111.188 219.508 111.016C219.728 110.845 220.044 110.883 220.215 111.103C229.967 123.576 251.392 161.796 251.607 162.18C251.742 162.423 251.655 162.73 251.412 162.865C251.335 162.908 251.25 162.929 251.167 162.929V162.931Z" fill="black"/>
<path d="M259.398 68.2108C255.452 30.5174 231.52 6.81651 209.529 18.7997C209.474 18.6852 209.422 18.5685 209.365 18.4541C204.869 9.31338 196.214 1.56644 186.044 0.937074C177.17 0.387807 168.931 5.13437 161.316 9.72075C157.905 11.7736 154.229 14.1584 153.08 17.9666C152.045 21.3927 153.375 25.1002 155.243 28.1509C158.516 33.4971 163.891 35.9917 167.677 40.6193C171.854 45.7275 175.311 50.5518 181.434 53.5865C187.672 56.6785 195.367 57.2392 201.566 54.0649C204.354 52.6368 213.348 45.803 210.17 22.6926C216.891 27.4598 208.861 62.043 215.994 76.3239C218.244 80.8279 261.403 87.3435 259.4 68.2085L259.398 68.2108Z" fill="black"/>
<path d="M188.642 48.0498L207.609 86.4412C207.609 86.4412 185.872 113.22 169.492 112.163C153.112 111.108 156.163 92.5747 168.37 86.8212L177.119 85.4823L165.985 55.5382L188.642 48.0521V48.0498Z" fill="white"/>
<path d="M177.781 88.4892C177.575 88.4892 177.383 88.361 177.307 88.1573L165.512 55.7071C165.466 55.579 165.473 55.437 165.532 55.3157C165.592 55.1922 165.697 55.1006 165.828 55.0572L188.484 47.5711C188.72 47.4933 188.981 47.6008 189.093 47.8228L207.584 84.6832C207.71 84.9327 207.609 85.2347 207.36 85.3583C207.11 85.4842 206.808 85.3835 206.684 85.134L188.388 48.6628L166.638 55.849L178.257 87.8117C178.353 88.0726 178.218 88.361 177.955 88.4571C177.898 88.4777 177.84 88.4869 177.783 88.4869L177.781 88.4892Z" fill="black"/>
<path d="M167.553 87.4852C167.308 87.4852 167.095 87.309 167.057 87.0595C167.013 86.7849 167.201 86.5262 167.475 86.4828L176.403 85.0775C176.675 85.0341 176.936 85.2217 176.979 85.4964C177.023 85.771 176.835 86.0296 176.561 86.0731L167.633 87.4783C167.606 87.4829 167.581 87.4852 167.556 87.4852H167.553Z" fill="black"/>
<path d="M154.536 35.743C153.712 40.2401 153.689 44.9729 155.209 49.2847C156.729 53.5964 159.929 57.439 164.2 59.0708C167.904 60.4874 172.143 60.1464 175.803 58.6176C179.463 57.0888 182.576 54.4501 185.119 51.4085C189.027 52.7954 193.786 51.1774 196.038 47.6964C197.336 45.687 197.794 43.0162 196.734 40.8717C195.674 38.7273 192.884 37.4457 190.721 38.4687C189.487 39.05 188.61 40.2378 187.356 40.7688C185.955 41.3592 184.286 41.0113 183.023 40.1623C181.761 39.3155 180.855 38.0339 180.132 36.6973C177.856 32.4886 177.176 27.4422 178.261 22.7803C178.158 23.2197 175.817 23.8834 175.4 24.0253C174.352 24.38 173.269 24.6409 172.175 24.8126C170.016 25.1467 167.801 25.1261 165.649 24.7508C164.557 24.5608 163.481 24.2816 162.435 23.9108C161.604 23.6156 160.528 22.8329 159.645 22.8215C157.798 22.8009 157.246 26.1674 156.802 27.4696C155.875 30.1748 155.053 32.9211 154.536 35.7361V35.743Z" fill="white"/>
<path d="M169.236 60.4701C167.411 60.4701 165.64 60.1634 164.019 59.5432C159.871 57.9572 156.399 54.1856 154.733 49.4527C153.325 45.4591 153.091 40.8155 154.039 35.6524C154.49 33.1944 155.216 30.5442 156.323 27.3127C156.399 27.093 156.477 26.8138 156.564 26.5002C157.028 24.8364 157.731 22.3235 159.626 22.3235C159.633 22.3235 159.642 22.3235 159.649 22.3235C160.341 22.3304 161.041 22.6874 161.719 23.0307C162.039 23.1932 162.344 23.3488 162.602 23.4404C163.607 23.7974 164.662 24.072 165.734 24.2574C167.849 24.6236 169.989 24.6442 172.097 24.3169C173.171 24.1498 174.228 23.8935 175.238 23.5502C175.299 23.5296 175.398 23.4976 175.526 23.4587C177.124 22.9598 177.653 22.7012 177.804 22.5707C177.902 22.3579 178.138 22.2366 178.376 22.2915C178.646 22.3556 178.815 22.6256 178.751 22.8957C177.698 27.4248 178.362 32.3683 180.573 36.458C181.416 38.0165 182.283 39.0602 183.302 39.7444C184.536 40.5729 186.012 40.788 187.157 40.3051C187.74 40.058 188.248 39.6415 188.784 39.1998C189.311 38.7672 189.853 38.3209 190.503 38.0142C192.824 36.918 195.946 38.1493 197.182 40.6507C198.254 42.818 197.977 45.6216 196.459 47.9697C194.163 51.5193 189.317 53.2427 185.284 51.9931C182.462 55.3024 179.337 57.6871 175.998 59.0809C173.793 60.0009 171.477 60.4655 169.238 60.4655L169.236 60.4701ZM155.03 35.8332C154.115 40.8224 154.334 45.292 155.682 49.1186C157.253 53.5768 160.505 57.1219 164.378 58.6026C167.748 59.8911 171.841 59.7286 175.606 58.1563C178.884 56.7877 181.954 54.4098 184.73 51.0891C184.865 50.9266 185.087 50.8671 185.286 50.938C188.96 52.2425 193.497 50.7023 195.612 47.4273C196.919 45.4065 197.18 42.9233 196.278 41.0993C195.294 39.1059 192.744 38.0715 190.931 38.9274C190.395 39.1814 189.922 39.5705 189.423 39.9802C188.855 40.447 188.267 40.9322 187.546 41.2366C186.092 41.85 184.249 41.6005 182.736 40.5843C181.576 39.8062 180.605 38.6482 179.683 36.9409C177.543 32.9839 176.78 28.2693 177.531 23.8317C177.108 24.0057 176.549 24.1956 175.821 24.4222C175.705 24.4588 175.613 24.4863 175.556 24.5069C174.491 24.8662 173.379 25.1385 172.248 25.3147C170.03 25.658 167.78 25.6374 165.557 25.253C164.429 25.0561 163.321 24.7678 162.261 24.3924C161.938 24.278 161.609 24.1109 161.256 23.9324C160.709 23.6555 160.089 23.3397 159.633 23.3351C159.629 23.3351 159.626 23.3351 159.622 23.3351C158.489 23.3351 157.887 25.4887 157.527 26.7772C157.434 27.1113 157.351 27.4111 157.271 27.6445C156.182 30.828 155.467 33.4302 155.026 35.8378L155.03 35.8332Z" fill="black"/>
<path d="M191.719 44.1285C189.54 44.0186 187.356 45.33 186.429 47.3051L191.719 44.1285Z" fill="white"/>
<path d="M186.43 47.8087C186.359 47.8087 186.286 47.7926 186.217 47.7606C185.965 47.6416 185.858 47.3418 185.974 47.0901C186.988 44.9296 189.369 43.5061 191.745 43.6251C192.022 43.6388 192.237 43.8746 192.223 44.1538C192.21 44.4307 191.969 44.6412 191.695 44.6321C189.705 44.5314 187.73 45.7192 186.885 47.5203C186.801 47.7034 186.618 47.811 186.43 47.811V47.8087Z" fill="black"/>
<path d="M190.319 54.2485C197.557 54.2485 203.424 48.3824 203.424 41.1462C203.424 33.91 197.557 28.0439 190.319 28.0439C183.082 28.0439 177.214 33.91 177.214 41.1462C177.214 48.3824 183.082 54.2485 190.319 54.2485Z" fill="#FFCA00"/>
<path d="M190.32 48.5176C186.254 48.5176 182.947 45.2106 182.947 41.146C182.947 37.0815 186.254 33.7744 190.32 33.7744C194.385 33.7744 197.693 37.0815 197.693 41.146C197.693 45.2106 194.385 48.5176 190.32 48.5176ZM190.32 34.7837C186.811 34.7837 183.954 37.6376 183.954 41.1483C183.954 44.6591 186.808 47.5129 190.32 47.5129C193.831 47.5129 196.683 44.6591 196.683 41.1483C196.683 37.6376 193.829 34.7837 190.32 34.7837Z" fill="white"/>
<path d="M160.001 64.3924C159.891 64.3924 159.781 64.3558 159.69 64.2826L153.629 59.4834C152.335 58.4604 152.001 56.6226 152.85 55.2083L154.723 52.0889C154.865 51.8509 155.174 51.7731 155.414 51.9172C155.652 52.0614 155.73 52.3704 155.586 52.6084L153.713 55.7278C153.125 56.7096 153.356 57.9843 154.253 58.6938L160.315 63.493C160.532 63.6647 160.569 63.9828 160.397 64.2002C160.299 64.3261 160.15 64.3902 160.001 64.3902V64.3924Z" fill="#FFCA00"/>
<path d="M161.357 65.222C162.617 65.222 163.637 64.2014 163.637 62.9425C163.637 61.6836 162.617 60.6631 161.357 60.6631C160.098 60.6631 159.078 61.6836 159.078 62.9425C159.078 64.2014 160.098 65.222 161.357 65.222Z" fill="#FFCA00"/>
<path d="M191.47 30.8202C191.237 30.8202 191.026 30.6577 190.978 30.4197L189.476 23.2014C187.535 13.8685 179.27 6.45108 169.372 5.16717C169.095 5.13055 168.903 4.8788 168.937 4.60188C168.974 4.32496 169.225 4.13272 169.5 4.16705C179.814 5.50589 188.435 13.2482 190.461 22.9954L191.962 30.2137C192.02 30.4861 191.843 30.7538 191.571 30.8088C191.537 30.8156 191.502 30.8202 191.468 30.8202H191.47Z" fill="#FFCA00"/>
<path d="M67.1938 74.2593L55.5564 52.1147C55.5564 52.1147 71.0828 47.4963 67.0656 40.1293C63.0484 32.7622 45.242 42.07 40.2977 38.628C40.2977 38.628 27.4563 29.1188 23.4071 24.5553C19.3555 19.9918 13.9191 13.174 9.27234 17.083C9.27234 17.083 1.92916 12.3593 1.08451 21.7082C1.08451 21.7082 -3.89182 27.6655 18.0553 46.8441C18.9206 47.5993 22.306 67.9473 29.3791 91.2156C42.7951 87.6683 55.6273 81.9239 67.1938 74.2593Z" fill="white"/>
<path d="M29.3803 91.7193C29.1651 91.7193 28.9637 91.5797 28.8973 91.3623C24.4909 76.8662 21.4854 63.368 19.6886 55.3029C18.7798 51.2269 17.9947 47.7002 17.6971 47.1989C-2.78737 29.2906 -0.0588484 22.5941 0.598101 21.5322C0.891096 18.5456 1.88224 16.6208 3.54407 15.8084C5.73238 14.7396 8.33728 15.9754 9.23229 16.4744C13.8882 12.9659 19.1346 18.9346 22.987 23.3173C23.2594 23.6263 23.5249 23.9284 23.7859 24.2236C27.755 28.6955 40.4729 38.1315 40.6011 38.2253C42.5101 39.5527 46.8157 38.7425 51.3755 37.8843C57.771 36.6828 65.0181 35.3188 67.5108 39.8891C68.3532 41.434 68.463 42.9879 67.8359 44.5053C66.0184 48.9085 58.4692 51.6892 56.2832 52.4147L67.6413 74.0283C67.7718 74.2755 67.6756 74.5799 67.4284 74.7081C67.1812 74.8385 66.879 74.7424 66.7486 74.4975L55.1112 52.3529C55.0402 52.2202 55.0356 52.0622 55.0928 51.9226C55.1524 51.783 55.2691 51.6778 55.4133 51.6366C55.5095 51.6091 65.002 48.7346 66.9042 44.1231C67.4147 42.8849 67.3231 41.6582 66.625 40.3743C64.4824 36.4471 57.9129 37.6806 51.5586 38.8776C46.786 39.7747 42.2766 40.6238 40.0105 39.0469C39.4726 38.6487 27.0684 29.4462 23.0305 24.8942C22.7696 24.5989 22.5018 24.2945 22.2294 23.9856C18.3701 19.596 13.5677 14.1331 9.59853 17.4722C9.43143 17.6141 9.1888 17.6301 9.00339 17.5111C8.97592 17.4928 6.10089 15.6802 3.98355 16.7192C2.6376 17.3784 1.83187 19.0742 1.58924 21.7588C1.58008 21.8618 1.54117 21.9579 1.47479 22.0357C1.43587 22.086 -2.71641 28.0273 18.3907 46.4689C18.8027 46.8282 19.1644 48.3158 20.6728 55.0878C22.4674 63.1391 25.4683 76.6144 29.8632 91.0739C29.9434 91.3394 29.7946 91.6209 29.5268 91.7032C29.4787 91.7193 29.4283 91.7262 29.3803 91.7262V91.7193Z" fill="black"/>
<path d="M32.7437 39.7632H32.7391C30.608 39.7449 28.6189 38.8134 26.7876 37.8087C21.6877 35.0121 17.0433 31.483 12.9848 27.3155C12.7445 27.0683 12.5041 26.8189 12.2661 26.5671C11.117 25.3679 9.92899 24.1252 8.55558 23.2028C6.74267 21.9876 4.76265 21.523 3.12828 21.9281C2.85818 21.9945 2.5858 21.832 2.51713 21.5596C2.45075 21.2896 2.61556 21.0172 2.88566 20.9486C5.50659 20.2986 7.91464 21.5573 9.11867 22.3629C10.5836 23.347 11.8106 24.6264 12.9963 25.8668C13.2343 26.114 13.4701 26.3634 13.7105 26.6083C17.6979 30.7026 22.2622 34.1721 27.2752 36.9208C28.9919 37.8614 30.8438 38.7356 32.7505 38.7517C33.0275 38.7539 33.2518 38.9805 33.2496 39.2597C33.2473 39.5367 33.0229 39.7586 32.746 39.7586L32.7437 39.7632Z" fill="black"/>
<path d="M25.5134 33.7394C25.4333 33.7394 25.3532 33.7211 25.2777 33.6799C21.3405 31.5972 18.2847 28.0865 15.5905 24.9877L10.5295 19.1701C10.3464 18.9596 10.3693 18.6414 10.5799 18.4606C10.7904 18.2775 11.1063 18.3004 11.2917 18.511L16.3528 24.3286C18.9897 27.361 21.9792 30.7962 25.7492 32.7896C25.9941 32.9201 26.0903 33.2245 25.9598 33.4693C25.8705 33.641 25.6943 33.7371 25.5134 33.7371V33.7394Z" fill="black"/>
<path d="M218.668 109.734C208.738 94.7546 190.758 81.4509 179.785 75.5486C162.985 66.5154 151.495 70.6853 151.117 74.164C150.737 77.6404 155.022 77.6999 158.607 78.0363C162.193 78.3727 165.098 79.0868 165.098 79.0868C165.098 79.0868 158.011 80.9337 161.788 87.0282C161.788 87.0282 154.019 89.4175 158.51 94.7523C158.51 94.7523 151.552 98.0456 156.958 103.74C162.365 109.434 165.181 103.779 165.181 103.779C165.181 103.779 175.937 109.214 182.126 109.827C182.126 109.827 186.981 116.863 191.314 131.301C199.054 128.285 217.766 119.119 218.668 109.736V109.734Z" fill="white"/>
<path d="M191.315 131.802C191.097 131.802 190.898 131.66 190.832 131.443C186.958 118.542 182.623 111.514 181.836 110.301C176.232 109.651 167.424 105.444 165.375 104.435C164.913 105.142 163.826 106.479 162.095 106.737C160.362 106.998 158.51 106.103 156.592 104.082C154.862 102.261 154.148 100.46 154.47 98.7294C154.873 96.569 156.785 95.1706 157.746 94.5939C156.716 93.1933 156.382 91.8476 156.755 90.5843C157.387 88.4398 159.889 87.2177 161.049 86.7577C160.122 85.0481 159.932 83.4918 160.479 82.121C161.054 80.6837 162.326 79.7683 163.37 79.2327C162.189 79.0039 160.465 78.7155 158.559 78.537C158.268 78.5095 157.975 78.4844 157.68 78.4592C155.118 78.2395 152.468 78.0106 151.245 76.523C150.721 75.8868 150.51 75.0743 150.616 74.1086C150.732 73.0306 151.646 71.9916 153.186 71.1837C157.744 68.7875 167.509 68.3756 180.025 75.1064C192.221 81.6633 209.647 95.2118 219.092 109.456C219.245 109.687 219.181 110.001 218.95 110.154C218.716 110.307 218.405 110.243 218.252 110.012C208.903 95.9121 191.637 82.494 179.549 75.9944C166.536 68.9958 157.151 70.2385 153.658 72.0763C152.442 72.7148 151.698 73.4975 151.621 74.2207C151.545 74.9164 151.678 75.4611 152.028 75.8845C152.983 77.0448 155.416 77.2531 157.771 77.4568C158.069 77.4819 158.366 77.5071 158.657 77.5346C162.239 77.871 165.192 78.5897 165.222 78.5965C165.446 78.6514 165.604 78.8506 165.604 79.0817C165.604 79.3129 165.451 79.5142 165.229 79.5737C165.199 79.5806 162.265 80.377 161.418 82.5009C160.939 83.6978 161.209 85.1328 162.221 86.7646C162.303 86.8973 162.319 87.0598 162.265 87.2063C162.21 87.3527 162.091 87.4649 161.942 87.5106C161.907 87.5221 158.385 88.6343 157.725 90.8749C157.414 91.9368 157.808 93.1338 158.9 94.4291C159 94.5481 159.039 94.7083 159.007 94.8594C158.975 95.0104 158.872 95.1409 158.73 95.2072C158.703 95.221 155.899 96.5804 155.466 98.9216C155.207 100.313 155.835 101.819 157.329 103.391C159.005 105.156 160.552 105.948 161.944 105.744C163.746 105.479 164.725 103.57 164.734 103.552C164.794 103.432 164.899 103.341 165.027 103.3C165.153 103.259 165.293 103.268 165.412 103.327C165.519 103.382 176.154 108.728 182.179 109.326C182.325 109.339 182.461 109.42 182.543 109.541C182.591 109.612 187.494 116.807 191.8 131.154C191.88 131.42 191.729 131.701 191.461 131.782C191.413 131.795 191.365 131.802 191.317 131.802H191.315Z" fill="black"/>
<path d="M163.673 103.119C163.563 103.119 163.451 103.082 163.357 103.006L160.784 100.94C160.566 100.766 160.532 100.448 160.706 100.233C160.88 100.015 161.198 99.9809 161.413 100.155L163.986 102.221C164.204 102.395 164.238 102.713 164.064 102.929C163.966 103.052 163.819 103.116 163.67 103.116L163.673 103.119Z" fill="black"/>
</svg>
